<svg width="18" height="15" viewBox="0 0 48 45" fill="none" xmlns="http://www.w3.org/2000/svg">
<path fill-rule="evenodd" clip-rule="evenodd" d="M21.9688 4.57688C23.2516 2.19813 25.7661 0.581635 28.6582 0.581635H43.7021L43.7022 16.029H39.8861V4.37247H30.4334C26.868 4.37247 23.9777 7.26278 23.9777 10.8282V37.2428H26.3597V41.0503L29.6025 41.0503L22.8744 41.0503H7.83041C3.63584 41.0503 0.235474 37.6499 0.235474 33.4554V0.581642H15.2794C18.1715 0.581642 20.6861 2.19813 21.9688 4.57688ZM29.6025 41.0503V28.8071C29.6025 26.4162 31.5407 24.478 33.9317 24.478H34.0606C34.077 21.8971 36.0158 19.8103 38.4051 19.8103C40.7943 19.8103 42.7331 21.8971 42.7495 24.478H47.2076V40.1301C47.2076 42.521 45.2694 44.4592 42.8785 44.4592H29.6025V41.0503ZM4.021 32.263C4.021 35.0594 6.28791 37.3263 9.08429 37.3263H20.2077V10.8101C20.2077 7.24468 17.3174 4.35437 13.752 4.35437H4.021V32.263ZM38.4051 21.7712C36.9403 21.7712 35.73 22.9496 35.5398 24.478H41.2704C41.0801 22.9496 39.8698 21.7712 38.4051 21.7712ZM34.9245 28.2469C34.0856 28.2469 33.4055 28.927 33.4055 29.7659V40.7262H41.9236C42.7625 40.7262 43.4426 40.0462 43.4426 39.2073V28.2469H34.9245Z" fill="white"/>
</svg>
