<svg width="148" height="32" viewBox="0 0 148 32" fill="none" xmlns="http://www.w3.org/2000/svg">
<g id="brand/logo/MB/avon_gradient">
<path id="Combined Shape" fill-rule="evenodd" clip-rule="evenodd" d="M81.1682 15.9875C81.1682 21.5233 85.6912 26.0271 91.2509 26.0271C96.8179 26.0271 101.347 21.5233 101.347 15.9875C101.347 10.4443 96.8179 5.93514 91.2509 5.93514C85.6912 5.93514 81.1682 10.4443 81.1682 15.9875ZM91.2508 0C95.7764 0 99.7715 1.58117 102.806 4.57365C105.902 7.58358 107.612 11.6396 107.612 15.9876C107.612 20.3337 105.897 24.3632 102.781 27.3358C99.7113 30.339 95.6119 31.9999 91.2508 31.9999C86.8216 31.9999 82.8252 30.3827 79.6944 27.323C76.6243 24.3051 74.9348 20.2797 74.9348 15.9876C74.9348 11.6342 76.6243 7.58022 79.693 4.57096C82.7524 1.57983 86.7481 0 91.2508 0ZM21.901 1.59617H18.687L4 31.9999H7.55789C9.33388 31.9999 10.8657 31.1065 11.9158 29.3299L15.0025 23.2549C20.4847 23.9392 25.3539 26.0036 29.7335 31.9999H36.6235L21.901 1.59617ZM20.3062 12.0445L24.2027 20.3944C22.0598 19.3615 19.7896 18.6044 17.4492 18.152L20.3062 12.0445ZM52.6055 31.9993L38.2952 1.59691H42.1839C43.9592 1.59691 45.5751 2.64009 46.3292 4.27356L54.1945 21.306L61.9987 4.2849C62.7502 2.64543 64.3693 1.59691 66.1493 1.59691H70.0675L55.7611 31.9993H52.6055ZM141.085 1.59617C139.312 1.59617 137.876 3.03096 137.877 4.79926L137.896 20.8371L121.98 1.59684H117.259L117.258 1.59617V31.9999H120.173C121.946 31.9999 123.383 30.5658 123.381 28.7968L123.363 12.7916L136.41 28.6174C136.41 28.6174 138.964 31.9992 142.695 31.9992H143.999L144 31.9999V1.59617H141.085Z" fill="url(#paint0_linear)"/>
</g>
<defs>
<linearGradient id="paint0_linear" x1="-70.2049" y1="21.0736" x2="-53.3662" y2="85.4404" gradientUnits="userSpaceOnUse">
<stop stop-color="#7F28C4"/>
<stop offset="0.644215" stop-color="#E2197C"/>
<stop offset="1" stop-color="#E5231B"/>
</linearGradient>
</defs>
</svg>
